{
  "accessors": [
    {
      "bufferView": 2,
      "componentType": 5126,
      "count": 61384,
      "max": [
        2.9374146461486816,
        1.2981406450271606,
        -0.10000061988830566
      ],
      "min": [
        -2.972954750061035,
        -5.322445869445801,
        -2.2504336833953857
      ],
      "type": "VEC3"
    },
    {
      "bufferView": 2,
      "byteOffset": 736608,
      "componentType": 5126,
      "count": 61384,
      "max": [
        1.0,
        1.0,
        1.0
      ],
      "min": [
        -1.0,
        -1.0,
        -1.0
      ],
      "type": "VEC3"
    },
    {
      "bufferView": 1,
      "componentType": 5126,
      "count": 61384,
      "max": [
        1.0,
        0.9983578324317932
      ],
      "min": [
        -1.5623190563474054e-07,
        -1.0242430903417699e-07
      ],
      "type": "VEC2"
    },
    {
      "bufferView": 0,
      "componentType": 5125,
      "count": 164370,
      "type": "SCALAR"
    },
    {
      "bufferView": 2,
      "byteOffset": 1473216,
      "componentType": 5126,
      "count": 57382,
      "max": [
        9.300806045532227,
        8.472899436950684,
        2.4314799308776855
      ],
      "min": [
        -9.300806045532227,
        -8.344635009765625,
        -2.059044361114502
      ],
      "type": "VEC3"
    },
    {
      "bufferView": 2,
      "byteOffset": 2161800,
      "componentType": 5126,
      "count": 57382,
      "max": [
        1.0,
        1.0,
        1.0
      ],
      "min": [
        -1.0,
        -1.0,
        -1.0
      ],
      "type": "VEC3"
    },
    {
      "bufferView": 3,
      "componentType": 5126,
      "count": 57382,
      "max": [
        1.0,
        1.0,
        1.0,
        1.0
      ],
      "min": [
        -1.0,
        -1.0,
        -1.0,
        -1.0
      ],
      "type": "VEC4"
    },
    {
      "bufferView": 1,
      "byteOffset": 491072,
      "componentType": 5126,
      "count": 57382,
      "max": [
        0.9999998807907104,
        0.9989863634109497
      ],
      "min": [
        -3.3022981682506725e-08,
        -7.675904356574392e-08
      ],
      "type": "VEC2"
    },
    {
      "bufferView": 1,
      "byteOffset": 950128,
      "componentType": 5126,
      "count": 57382,
      "max": [
        0.9999998807907104,
        0.9989863634109497
      ],
      "min": [
        -3.3022981682506725e-08,
        -7.675904356574392e-08
      ],
      "type": "VEC2"
    },
    {
      "bufferView": 1,
      "byteOffset": 1409184,
      "componentType": 5126,
      "count": 57382,
      "max": [
        0.9999998807907104,
        0.9989863634109497
      ],
      "min": [
        -3.3022981682506725e-08,
        -7.675904356574392e-08
      ],
      "type": "VEC2"
    },
    {
      "bufferView": 0,
      "byteOffset": 657480,
      "componentType": 5125,
      "count": 192120,
      "type": "SCALAR"
    },
    {
      "bufferView": 2,
      "byteOffset": 2850384,
      "componentType": 5126,
      "count": 12814,
      "max": [
        5.4120988845825195,
        0.9678194522857666,
        -0.11397695541381836
      ],
      "min": [
        -5.352169990539551,
        -8.472899436950684,
        -1.1839144229888916
      ],
      "type": "VEC3"
    },
    {
      "bufferView": 2,
      "byteOffset": 3004152,
      "componentType": 5126,
      "count": 12814,
      "max": [
        1.0,
        1.0,
        1.0
      ],
      "min": [
        -1.0,
        -1.0,
        -1.0
      ],
      "type": "VEC3"
    },
    {
      "bufferView": 1,
      "byteOffset": 1868240,
      "componentType": 5126,
      "count": 12814,
      "max": [
        0.9985556602478027,
        0.9989780187606812
      ],
      "min": [
        0.005895254667848349,
        2.135500665190193e-08
      ],
      "type": "VEC2"
    },
    {
      "bufferView": 0,
      "byteOffset": 1425960,
      "componentType": 5125,
      "count": 35961,
      "type": "SCALAR"
    },
    {
      "bufferView": 2,
      "byteOffset": 3157920,
      "componentType": 5126,
      "count": 985,
      "max": [
        0.43489837646484375,
        -3.322079658508301,
        1.5601747035980225
      ],
      "min": [
        -0.4284248352050781,
        -6.638514518737793,
        0.6761798858642578
      ],
      "type": "VEC3"
    },
    {
      "bufferView": 2,
      "byteOffset": 3169740,
      "componentType": 5126,
      "count": 985,
      "max": [
        0.9992985129356384,
        0.8552488088607788,
        0.9999702572822571
      ],
      "min": [
        -0.9992984533309937,
        -0.9646022915840149,
        -0.6321719288825989
      ],
      "type": "VEC3"
    },
    {
      "bufferView": 1,
      "byteOffset": 1970752,
      "componentType": 5126,
      "count": 985,
      "max": [
        0.5809929966926575,
        0.6382772922515869
      ],
      "min": [
        0.24360251426696777,
        0.19694750010967255
      ],
      "type": "VEC2"
    },
    {
      "bufferView": 0,
      "byteOffset": 1569804,
      "componentType": 5125,
      "count": 4500,
      "type": "SCALAR"
    },
    {
      "bufferView": 2,
      "byteOffset": 3181560,
      "componentType": 5126,
      "count": 10687,
      "max": [
        0.4985036849975586,
        -3.186138153076172,
        1.4191370010375977
      ],
      "min": [
        -0.4887866973876953,
        -6.76328182220459,
        -0.19618678092956543
      ],
      "type": "VEC3"
    },
    {
      "bufferView": 2,
      "byteOffset": 3309804,
      "componentType": 5126,
      "count": 10687,
      "max": [
        1.0,
        1.0,
        1.0
      ],
      "min": [
        -1.0,
        -1.0,
        -1.0
      ],
      "type": "VEC3"
    },
    {
      "bufferView": 1,
      "byteOffset": 1978632,
      "componentType": 5126,
      "count": 10687,
      "max": [
        0.9419094920158386,
        0.8073961734771729
      ],
      "min": [
        0.06000128388404846,
        0.041181761771440506
      ],
      "type": "VEC2"
    },
    {
      "bufferView": 0,
      "byteOffset": 1587804,
      "componentType": 5125,
      "count": 38949,
      "type": "SCALAR"
    },
    {
      "bufferView": 2,
      "byteOffset": 3438048,
      "componentType": 5126,
      "count": 6384,
      "max": [
        2.9487504959106445,
        1.1281062364578247,
        -0.1568901538848877
      ],
      "min": [
        -2.98429012298584,
        -5.565561294555664,
        -2.4314799308776855
      ],
      "type": "VEC3"
    },
    {
      "bufferView": 2,
      "byteOffset": 3514656,
      "componentType": 5126,
      "count": 6384,
      "max": [
        0.9999997019767761,
        0.9999134540557861,
        0.9999134540557861
      ],
      "min": [
        -0.9999995827674866,
        -0.9999134540557861,
        -0.9999134540557861
      ],
      "type": "VEC3"
    },
    {
      "bufferView": 1,
      "byteOffset": 2064128,
      "componentType": 5126,
      "count": 6384,
      "max": [
        1.0,
        1.0
      ],
      "min": [
        0.0,
        0.0
      ],
      "type": "VEC2"
    },
    {
      "bufferView": 0,
      "byteOffset": 1743600,
      "componentType": 5125,
      "count": 25632,
      "type": "SCALAR"
    },
    {
      "bufferView": 2,
      "byteOffset": 3591264,
      "componentType": 5126,
      "count": 65532,
      "max": [
        8.904109954833984,
        8.135401725769043,
        2.4259390830993652
      ],
      "min": [
        -8.904109954833984,
        -8.011297225952148,
        -0.7321540117263794
      ],
      "type": "VEC3"
    },
    {
      "bufferView": 2,
      "byteOffset": 4377648,
      "componentType": 5126,
      "count": 65532,
      "max": [
        1.0,
        0.9981013536453247,
        1.0
      ],
      "min": [
        -1.0,
        -1.0,
        -1.0
      ],
      "type": "VEC3"
    },
    {
      "bufferView": 1,
      "byteOffset": 2115200,
      "componentType": 5126,
      "count": 65532,
      "max": [
        1.976144552230835,
        1.176792860031128
      ],
      "min": [
        -1.1975839138031006,
        -1.2752505540847778
      ],
      "type": "VEC2"
    },
    {
      "bufferView": 0,
      "byteOffset": 1846128,
      "componentType": 5125,
      "count": 235905,
      "type": "SCALAR"
    },
    {
      "bufferView": 2,
      "byteOffset": 5164032,
      "componentType": 5126,
      "count": 65532,
      "max": [
        8.904109954833984,
        7.408974647521973,
        1.6607437133789063
      ],
      "min": [
        -8.904109954833984,
        -8.007572174072266,
        -1.6020535230636597
      ],
      "type": "VEC3"
    },
    {
      "bufferView": 2,
      "byteOffset": 5950416,
      "componentType": 5126,
      "count": 65532,
      "max": [
        0.9994620084762573,
        1.0,
        0.9946617484092712
      ],
      "min": [
        -0.9994620084762573,
        -1.0,
        -0.9982357025146484
      ],
      "type": "VEC3"
    },
    {
      "bufferView": 1,
      "byteOffset": 2639456,
      "componentType": 5126,
      "count": 65532,
      "max": [
        1.976144552230835,
        2.2321746349334717
      ],
      "min": [
        -1.1383602619171143,
        0.6465115547180176
      ],
      "type": "VEC2"
    },
    {
      "bufferView": 0,
      "byteOffset": 2789748,
      "componentType": 5125,
      "count": 191088,
      "type": "SCALAR"
    },
    {
      "bufferView": 2,
      "byteOffset": 6736800,
      "componentType": 5126,
      "count": 21815,
      "max": [
        3.205512762069702,
        8.135401725769043,
        2.4259390830993652
      ],
      "min": [
        -3.205510139465332,
        -7.464681148529053,
        -0.7321540117263794
      ],
      "type": "VEC3"
    },
    {
      "bufferView": 2,
      "byteOffset": 6998580,
      "componentType": 5126,
      "count": 21815,
      "max": [
        0.9982367753982544,
        0.9901190996170044,
        0.9807620048522949
      ],
      "min": [
        -0.9866490364074707,
        -0.10097389668226242,
        -0.9982355833053589
      ],
      "type": "VEC3"
    },
    {
      "bufferView": 1,
      "byteOffset": 3163712,
      "componentType": 5126,
      "count": 21815,
      "max": [
        0.90625,
        1.0
      ],
      "min": [
        0.03125,
        0.2678648829460144
      ],
      "type": "VEC2"
    },
    {
      "bufferView": 0,
      "byteOffset": 3554100,
      "componentType": 5125,
      "count": 61485,
      "type": "SCALAR"
    },
    {
      "bufferView": 2,
      "byteOffset": 7260360,
      "componentType": 5126,
      "count": 529,
      "max": [
        -0.5326633453369141,
        -5.645105361938477,
        -1.2148351669311523
      ],
      "min": [
        -0.8635468482971191,
        -5.823493957519531,
        -1.5457186698913574
      ],
      "type": "VEC3"
    },
    {
      "bufferView": 2,
      "byteOffset": 7266708,
      "componentType": 5126,
      "count": 529,
      "max": [
        0.9987652897834778,
        -0.049678802490234375,
        0.9987650513648987
      ],
      "min": [
        -0.9987649917602539,
        -1.0,
        -0.9987651109695435
      ],
      "type": "VEC3"
    },
    {
      "bufferView": 1,
      "byteOffset": 3338232,
      "componentType": 5126,
      "count": 529,
      "max": [
        0.5902673602104187,
        0.6005351543426514
      ],
      "min": [
        0.06461413204669952,
        0.1819242238998413
      ],
      "type": "VEC2"
    },
    {
      "bufferView": 0,
      "byteOffset": 3800040,
      "componentType": 5125,
      "count": 2496,
      "type": "SCALAR"
    },
    {
      "bufferView": 2,
      "byteOffset": 7273056,
      "componentType": 5126,
      "count": 17674,
      "max": [
        5.165552616119385,
        1.0020277500152588,
        -0.6261659860610962
      ],
      "min": [
        -5.105625152587891,
        -1.3648656606674194,
        -0.9373691082000732
      ],
      "type": "VEC3"
    },
    {
      "bufferView": 2,
      "byteOffset": 7485144,
      "componentType": 5126,
      "count": 17674,
      "max": [
        1.0,
        1.0,
        1.0
      ],
      "min": [
        -1.0,
        -1.0,
        -1.0
      ],
      "type": "VEC3"
    },
    {
      "bufferView": 1,
      "byteOffset": 3342464,
      "componentType": 5126,
      "count": 17674,
      "max": [
        0.9999822974205017,
        0.9977805614471436
      ],
      "min": [
        0.038266636431217194,
        0.11704041808843613
      ],
      "type": "VEC2"
    },
    {
      "bufferView": 0,
      "byteOffset": 3810024,
      "componentType": 5125,
      "count": 67266,
      "type": "SCALAR"
    },
    {
      "bufferView": 2,
      "byteOffset": 7697232,
      "componentType": 5126,
      "count": 19156,
      "max": [
        6.74013090133667,
        0.4068472385406494,
        -0.10585188865661621
      ],
      "min": [
        -6.66114616394043,
        -2.0941827297210693,
        -0.9665462970733643
      ],
      "type": "VEC3"
    },
    {
      "bufferView": 2,
      "byteOffset": 7927104,
      "componentType": 5126,
      "count": 19156,
      "max": [
        1.0,
        1.0,
        1.0
      ],
      "min": [
        -1.0,
        -1.0,
        -1.0
      ],
      "type": "VEC3"
    },
    {
      "bufferView": 1,
      "byteOffset": 3483856,
      "componentType": 5126,
      "count": 19156,
      "max": [
        1.0,
        0.9999657869338989
      ],
      "min": [
        -2.1764270385915552e-08,
        -1.112878322828692e-07
      ],
      "type": "VEC2"
    },
    {
      "bufferView": 0,
      "byteOffset": 4079088,
      "componentType": 5125,
      "count": 81192,
      "type": "SCALAR"
    },
    {
      "bufferView": 2,
      "byteOffset": 8156976,
      "componentType": 5126,
      "count": 13179,
      "max": [
        5.165488243103027,
        1.1313750743865967,
        -0.6262305974960327
      ],
      "min": [
        -5.105623245239258,
        -2.166879653930664,
        -1.2228180170059204
      ],
      "type": "VEC3"
    },
    {
      "bufferView": 2,
      "byteOffset": 8315124,
      "componentType": 5126,
      "count": 13179,
      "max": [
        1.0,
        1.0,
        1.0
      ],
      "min": [
        -1.0,
        -1.0,
        -1.0
      ],
      "type": "VEC3"
    },
    {
      "bufferView": 1,
      "byteOffset": 3637104,
      "componentType": 5126,
      "count": 13179,
      "max": [
        0.9931128025054932,
        1.0
      ],
      "min": [
        -6.545491970655348e-08,
        -2.915158958671782e-08
      ],
      "type": "VEC2"
    },
    {
      "bufferView": 1,
      "byteOffset": 3742536,
      "componentType": 5126,
      "count": 13179,
      "max": [
        0.9931128025054932,
        1.0
      ],
      "min": [
        -6.545491970655348e-08,
        -2.915158958671782e-08
      ],
      "type": "VEC2"
    },
    {
      "bufferView": 0,
      "byteOffset": 4403856,
      "componentType": 5125,
      "count": 50841,
      "type": "SCALAR"
    }
  ],
  "asset": {
    "extras": {
      "author": "blarg (https://sketchfab.com/blarg1)",
      "license": "CC-BY-4.0 (http://creativecommons.org/licenses/by/4.0/)",
      "source": "https://sketchfab.com/3d-models/a10-thunderbolt-ii-77f1687fbdf3413aad9557233bb23ade",
      "title": "A10 Thunderbolt II"
    },
    "generator": "Sketchfab-16.53.0",
    "version": "2.0"
  },
  "bufferViews": [
    {
      "buffer": 0,
      "byteLength": 4607220,
      "name": "floatBufferViews",
      "target": 34963
    },
    {
      "buffer": 0,
      "byteLength": 3847968,
      "byteOffset": 4607220,
      "byteStride": 8,
      "name": "floatBufferViews",
      "target": 34962
    },
    {
      "buffer": 0,
      "byteLength": 8473272,
      "byteOffset": 8455188,
      "byteStride": 12,
      "name": "floatBufferViews",
      "target": 34962
    },
    {
      "buffer": 0,
      "byteLength": 918112,
      "byteOffset": 16928460,
      "byteStride": 16,
      "name": "floatBufferViews",
      "target": 34962
    }
  ],
  "buffers": [
    {
      "byteLength": 17846572,
      "uri": "scene.bin"
    }
  ],
  "images": [
    {
      "uri": "textures/White_baseColor.png"
    },
    {
      "uri": "textures/Main_baseColor.png"
    },
    {
      "uri": "textures/Main_metallicRoughness.png"
    },
    {
      "uri": "textures/Main_normal.png"
    },
    {
      "uri": "textures/Interior_baseColor.jpeg"
    },
    {
      "uri": "textures/BombWhite2_baseColor.png"
    },
    {
      "uri": "textures/BombWhite_baseColor.png"
    },
    {
      "uri": "textures/Green_baseColor.png"
    },
    {
      "uri": "textures/Green_metallicRoughness.png"
    }
  ],
  "materials": [
    {
      "doubleSided": true,
      "name": "White",
      "pbrMetallicRoughness": {
        "baseColorTexture": {
          "index": 0
        },
        "metallicFactor": 0.0,
        "roughnessFactor": 0.8211145618000169
      }
    },
    {
      "doubleSided": true,
      "name": "Main",
      "normalTexture": {
        "index": 3
      },
      "pbrMetallicRoughness": {
        "baseColorTexture": {
          "index": 1
        },
        "metallicFactor": 0.0,
        "metallicRoughnessTexture": {
          "index": 2
        }
      }
    },
    {
      "doubleSided": true,
      "name": "Secondary",
      "pbrMetallicRoughness": {
        "baseColorFactor": [
          0.04167169351225247,
          0.04167169351225247,
          0.04167169351225247,
          1.0
        ],
        "roughnessFactor": 0.3337153027513988
      }
    },
    {
      "alphaMode": "BLEND",
      "doubleSided": true,
      "name": "Windows",
      "pbrMetallicRoughness": {
        "baseColorFactor": [
          0.43425069249245785,
          0.43425069249245785,
          0.43425069249245785,
          0.3337153027513988
        ],
        "roughnessFactor": 0.09600029257232022
      }
    },
    {
      "doubleSided": true,
      "name": "Interior",
      "pbrMetallicRoughness": {
        "baseColorTexture": {
          "index": 4
        },
        "metallicFactor": 0.0,
        "roughnessFactor": 0.8211145618000169
      }
    },
    {
      "doubleSided": true,
      "name": "Tire",
      "pbrMetallicRoughness": {
        "baseColorFactor": [
          0.0154594,
          0.0154594,
          0.0154594,
          1.0
        ],
        "metallicFactor": 0.0,
        "roughnessFactor": 0.35809632943643255
      }
    },
    {
      "doubleSided": true,
      "name": "Metal",
      "pbrMetallicRoughness": {
        "baseColorFactor": [
          0.18272736393587025,
          0.18272736393587025,
          0.18272736393587025,
          1.0
        ],
        "roughnessFactor": 0.06552400921602808
      }
    },
    {
      "doubleSided": true,
      "name": "Glass",
      "pbrMetallicRoughness": {
        "baseColorFactor": [
          0.034538,
          0.034538,
          0.034538,
          1.0
        ],
        "roughnessFactor": 0.010361399999999998
      }
    },
    {
      "doubleSided": true,
      "name": "BombWhite2",
      "pbrMetallicRoughness": {
        "baseColorTexture": {
          "index": 5
        },
        "metallicFactor": 0.0,
        "roughnessFactor": 0.8211145618000169
      }
    },
    {
      "doubleSided": true,
      "name": "BombWhite",
      "pbrMetallicRoughness": {
        "baseColorTexture": {
          "index": 6
        },
        "metallicFactor": 0.0
      }
    },
    {
      "doubleSided": true,
      "name": "Green",
      "pbrMetallicRoughness": {
        "baseColorTexture": {
          "index": 7
        },
        "metallicFactor": 0.0,
        "metallicRoughnessTexture": {
          "index": 8
        }
      }
    }
  ],
  "meshes": [
    {
      "name": "A10.003_White_0",
      "primitives": [
        {
          "attributes": {
            "NORMAL": 1,
            "POSITION": 0,
            "TEXCOORD_0": 2
          },
          "indices": 3,
          "material": 0,
          "mode": 4
        }
      ]
    },
    {
      "name": "A10.003_Main_0",
      "primitives": [
        {
          "attributes": {
            "NORMAL": 5,
            "POSITION": 4,
            "TANGENT": 6,
            "TEXCOORD_0": 7,
            "TEXCOORD_1": 8,
            "TEXCOORD_2": 9
          },
          "indices": 10,
          "material": 1,
          "mode": 4
        }
      ]
    },
    {
      "name": "A10.003_Secondary_0",
      "primitives": [
        {
          "attributes": {
            "NORMAL": 12,
            "POSITION": 11,
            "TEXCOORD_0": 13
          },
          "indices": 14,
          "material": 2,
          "mode": 4
        }
      ]
    },
    {
      "name": "A10.003_Windows_0",
      "primitives": [
        {
          "attributes": {
            "NORMAL": 16,
            "POSITION": 15,
            "TEXCOORD_0": 17
          },
          "indices": 18,
          "material": 3,
          "mode": 4
        }
      ]
    },
    {
      "name": "A10.003_Interior_0",
      "primitives": [
        {
          "attributes": {
            "NORMAL": 20,
            "POSITION": 19,
            "TEXCOORD_0": 21
          },
          "indices": 22,
          "material": 4,
          "mode": 4
        }
      ]
    },
    {
      "name": "A10.003_Tire_0",
      "primitives": [
        {
          "attributes": {
            "NORMAL": 24,
            "POSITION": 23,
            "TEXCOORD_0": 25
          },
          "indices": 26,
          "material": 5,
          "mode": 4
        }
      ]
    },
    {
      "name": "A10.003_Metal_0",
      "primitives": [
        {
          "attributes": {
            "NORMAL": 28,
            "POSITION": 27,
            "TEXCOORD_0": 29
          },
          "indices": 30,
          "material": 6,
          "mode": 4
        }
      ]
    },
    {
      "name": "A10.003_Metal_0",
      "primitives": [
        {
          "attributes": {
            "NORMAL": 32,
            "POSITION": 31,
            "TEXCOORD_0": 33
          },
          "indices": 34,
          "material": 6,
          "mode": 4
        }
      ]
    },
    {
      "name": "A10.003_Metal_0",
      "primitives": [
        {
          "attributes": {
            "NORMAL": 36,
            "POSITION": 35,
            "TEXCOORD_0": 37
          },
          "indices": 38,
          "material": 6,
          "mode": 4
        }
      ]
    },
    {
      "name": "A10.003_Glass_0",
      "primitives": [
        {
          "attributes": {
            "NORMAL": 40,
            "POSITION": 39,
            "TEXCOORD_0": 41
          },
          "indices": 42,
          "material": 7,
          "mode": 4
        }
      ]
    },
    {
      "name": "A10.003_BombWhite2_0",
      "primitives": [
        {
          "attributes": {
            "NORMAL": 44,
            "POSITION": 43,
            "TEXCOORD_0": 45
          },
          "indices": 46,
          "material": 8,
          "mode": 4
        }
      ]
    },
    {
      "name": "A10.003_BombWhite_0",
      "primitives": [
        {
          "attributes": {
            "NORMAL": 48,
            "POSITION": 47,
            "TEXCOORD_0": 49
          },
          "indices": 50,
          "material": 9,
          "mode": 4
        }
      ]
    },
    {
      "name": "A10.003_Green_0",
      "primitives": [
        {
          "attributes": {
            "NORMAL": 52,
            "POSITION": 51,
            "TEXCOORD_0": 53,
            "TEXCOORD_1": 54
          },
          "indices": 55,
          "material": 10,
          "mode": 4
        }
      ]
    }
  ],
  "nodes": [
    {
      "children": [
        1
      ],
      "matrix": [
        1.0,
        0.0,
        0.0,
        0.0,
        0.0,
        2.220446049250313e-16,
        -1.0,
        0.0,
        0.0,
        1.0,
        2.220446049250313e-16,
        0.0,
        0.0,
        0.0,
        0.0,
        1.0
      ],
      "name": "Sketchfab_model"
    },
    {
      "children": [
        2
      ],
      "matrix": [
        0.009999999776482582,
        0.0,
        0.0,
        0.0,
        0.0,
        0.0,
        0.009999999776482582,
        0.0,
        0.0,
        -0.009999999776482582,
        0.0,
        0.0,
        0.0,
        0.0,
        0.0,
        1.0
      ],
      "name": "ca601bc26ed9454ab7e0530e66f5e83f.fbx"
    },
    {
      "children": [
        3
      ],
      "name": "RootNode"
    },
    {
      "children": [
        4,
        5,
        6,
        7,
        8,
        9,
        10,
        11,
        12,
        13,
        14,
        15,
        16
      ],
      "matrix": [
        100.0,
        0.0,
        0.0,
        0.0,
        -0.0,
        -1.629206793918314e-05,
        -99.99999999999868,
        0.0,
        0.0,
        99.99999999999868,
        -1.629206793918314e-05,
        0.0,
        -611.5150146484375,
        226.65744018554688,
        -50.678062438964844,
        1.0
      ],
      "name": "A10.003"
    },
    {
      "mesh": 0,
      "name": "A10.003_White_0"
    },
    {
      "mesh": 1,
      "name": "A10.003_Main_0"
    },
    {
      "mesh": 2,
      "name": "A10.003_Secondary_0"
    },
    {
      "mesh": 3,
      "name": "A10.003_Windows_0"
    },
    {
      "mesh": 4,
      "name": "A10.003_Interior_0"
    },
    {
      "mesh": 5,
      "name": "A10.003_Tire_0"
    },
    {
      "mesh": 6,
      "name": "A10.003_Metal_0"
    },
    {
      "mesh": 7,
      "name": "A10.003_Metal_0"
    },
    {
      "mesh": 8,
      "name": "A10.003_Metal_0"
    },
    {
      "mesh": 9,
      "name": "A10.003_Glass_0"
    },
    {
      "mesh": 10,
      "name": "A10.003_BombWhite2_0"
    },
    {
      "mesh": 11,
      "name": "A10.003_BombWhite_0"
    },
    {
      "mesh": 12,
      "name": "A10.003_Green_0"
    }
  ],
  "samplers": [
    {
      "magFilter": 9729,
      "minFilter": 9987,
      "wrapS": 10497,
      "wrapT": 10497
    }
  ],
  "scene": 0,
  "scenes": [
    {
      "name": "Sketchfab_Scene",
      "nodes": [
        0
      ]
    }
  ],
  "textures": [
    {
      "sampler": 0,
      "source": 0
    },
    {
      "sampler": 0,
      "source": 1
    },
    {
      "sampler": 0,
      "source": 2
    },
    {
      "sampler": 0,
      "source": 3
    },
    {
      "sampler": 0,
      "source": 4
    },
    {
      "sampler": 0,
      "source": 5
    },
    {
      "sampler": 0,
      "source": 6
    },
    {
      "sampler": 0,
      "source": 7
    },
    {
      "sampler": 0,
      "source": 8
    }
  ]
}
