{
  "accessors": [
    {
      "bufferView": 2,
      "componentType": 5126,
      "count": 693,
      "max": [
        0.5780996680259705,
        5.1815900802612305,
        2.065279960632324
      ],
      "min": [
        -0.2665750980377197,
        0.9268836379051208,
        -2.065279960632324
      ],
      "type": "VEC3"
    },
    {
      "bufferView": 2,
      "byteOffset": 8316,
      "componentType": 5126,
      "count": 693,
      "max": [
        0.9995256662368774,
        0.9736570119857788,
        1.0
      ],
      "min": [
        -0.9999667406082153,
        -1.0,
        -1.0
      ],
      "type": "VEC3"
    },
    {
      "bufferView": 1,
      "componentType": 5126,
      "count": 693,
      "max": [
        1.0,
        1.0
      ],
      "min": [
        0.0,
        0.0
      ],
      "type": "VEC2"
    },
    {
      "bufferView": 0,
      "componentType": 5125,
      "count": 1659,
      "type": "SCALAR"
    },
    {
      "bufferView": 2,
      "byteOffset": 16632,
      "componentType": 5126,
      "count": 699,
      "max": [
        87.73506164550781,
        4.762613296508789,
        2.383892059326172
      ],
      "min": [
        -6.008873462677002,
        -9.469124794006348,
        -5.4284892082214355
      ],
      "type": "VEC3"
    },
    {
      "bufferView": 2,
      "byteOffset": 25020,
      "componentType": 5126,
      "count": 699,
      "max": [
        0.9999923706054688,
        0.9999951124191284,
        1.0
      ],
      "min": [
        -0.9999924302101135,
        -0.9999951124191284,
        -1.0
      ],
      "type": "VEC3"
    },
    {
      "bufferView": 1,
      "byteOffset": 5544,
      "componentType": 5126,
      "count": 699,
      "max": [
        1.0,
        1.0
      ],
      "min": [
        0.0,
        0.0
      ],
      "type": "VEC2"
    },
    {
      "bufferView": 0,
      "byteOffset": 6636,
      "componentType": 5125,
      "count": 1341,
      "type": "SCALAR"
    },
    {
      "bufferView": 2,
      "byteOffset": 33408,
      "componentType": 5126,
      "count": 1406,
      "max": [
        0.6595958471298218,
        4.783718585968018,
        1.4748460054397583
      ],
      "min": [
        0.20671245455741882,
        4.233059883117676,
        -1.4748460054397583
      ],
      "type": "VEC3"
    },
    {
      "bufferView": 2,
      "byteOffset": 50280,
      "componentType": 5126,
      "count": 1406,
      "max": [
        0.9994969367980957,
        0.9999815225601196,
        1.0
      ],
      "min": [
        -0.9998026490211487,
        -0.9737694263458252,
        -1.0
      ],
      "type": "VEC3"
    },
    {
      "bufferView": 1,
      "byteOffset": 11136,
      "componentType": 5126,
      "count": 1406,
      "max": [
        1.0,
        1.0
      ],
      "min": [
        0.0,
        0.0
      ],
      "type": "VEC2"
    },
    {
      "bufferView": 0,
      "byteOffset": 12000,
      "componentType": 5125,
      "count": 3480,
      "type": "SCALAR"
    },
    {
      "bufferView": 2,
      "byteOffset": 67152,
      "componentType": 5126,
      "count": 5332,
      "max": [
        8.111237525939941,
        5.373049736022949,
        2.601139783859253
      ],
      "min": [
        -12.103861808776855,
        -2.427579164505005,
        -2.601139783859253
      ],
      "type": "VEC3"
    },
    {
      "bufferView": 2,
      "byteOffset": 131136,
      "componentType": 5126,
      "count": 5332,
      "max": [
        1.0,
        1.0,
        1.0
      ],
      "min": [
        -1.0,
        -1.0,
        -1.0
      ],
      "type": "VEC3"
    },
    {
      "bufferView": 1,
      "byteOffset": 22384,
      "componentType": 5126,
      "count": 5332,
      "max": [
        1.0,
        1.0
      ],
      "min": [
        0.0,
        0.0
      ],
      "type": "VEC2"
    },
    {
      "bufferView": 0,
      "byteOffset": 25920,
      "componentType": 5125,
      "count": 11271,
      "type": "SCALAR"
    },
    {
      "bufferView": 2,
      "byteOffset": 195120,
      "componentType": 5126,
      "count": 118,
      "max": [
        87.73505401611328,
        5.293543815612793,
        5.451614856719971
      ],
      "min": [
        -5.212490081787109,
        -9.469123840332031,
        -2.4023125171661377
      ],
      "type": "VEC3"
    },
    {
      "bufferView": 2,
      "byteOffset": 196536,
      "componentType": 5126,
      "count": 118,
      "max": [
        0.9994392991065979,
        0.9331824779510498,
        0.9477724432945251
      ],
      "min": [
        -0.9997135996818542,
        -0.9843880534172058,
        -0.9477689862251282
      ],
      "type": "VEC3"
    },
    {
      "bufferView": 1,
      "byteOffset": 65040,
      "componentType": 5126,
      "count": 118,
      "max": [
        0.875,
        0.75
      ],
      "min": [
        0.1249999850988388,
        0.17689259350299835
      ],
      "type": "VEC2"
    },
    {
      "bufferView": 0,
      "byteOffset": 71004,
      "componentType": 5125,
      "count": 156,
      "type": "SCALAR"
    },
    {
      "bufferView": 2,
      "byteOffset": 197952,
      "componentType": 5126,
      "count": 48,
      "max": [
        -6.1838531494140625,
        4.297282695770264,
        0.6332348585128784
      ],
      "min": [
        -7.022490978240967,
        3.3132474422454834,
        -0.6246496438980103
      ],
      "type": "VEC3"
    },
    {
      "bufferView": 2,
      "byteOffset": 198528,
      "componentType": 5126,
      "count": 48,
      "max": [
        0.843511164188385,
        0.6907793879508972,
        0.13817887008190155
      ],
      "min": [
        -0.7953731417655945,
        -0.8481970429420471,
        -0.138177752494812
      ],
      "type": "VEC3"
    },
    {
      "bufferView": 1,
      "byteOffset": 65984,
      "componentType": 5126,
      "count": 48,
      "max": [
        0.5956872701644897,
        0.9669619202613831
      ],
      "min": [
        0.40431275963783264,
        0.2830381393432617
      ],
      "type": "VEC2"
    },
    {
      "bufferView": 0,
      "byteOffset": 71628,
      "componentType": 5125,
      "count": 144,
      "type": "SCALAR"
    },
    {
      "bufferView": 2,
      "byteOffset": 199104,
      "componentType": 5126,
      "count": 16,
      "max": [
        -7.584910869598389,
        3.22839617729187,
        1.4275397062301636
      ],
      "min": [
        -7.6059136390686035,
        2.3511850833892822,
        -1.4275397062301636
      ],
      "type": "VEC3"
    },
    {
      "bufferView": 2,
      "byteOffset": 199296,
      "componentType": 5126,
      "count": 16,
      "max": [
        0.9997135996818542,
        -0.02393435500562191,
        1.6653439161018468e-07
      ],
      "min": [
        0.9997135400772095,
        -0.023935802280902863,
        -0.0
      ],
      "type": "VEC3"
    },
    {
      "bufferView": 1,
      "byteOffset": 66368,
      "componentType": 5126,
      "count": 16,
      "max": [
        0.9940563440322876,
        0.8716314435005188
      ],
      "min": [
        0.003016163595020771,
        6.652995944023132e-05
      ],
      "type": "VEC2"
    },
    {
      "bufferView": 0,
      "byteOffset": 72204,
      "componentType": 5125,
      "count": 24,
      "type": "SCALAR"
    },
    {
      "bufferView": 2,
      "byteOffset": 199488,
      "componentType": 5126,
      "count": 801,
      "max": [
        107.23430633544922,
        3.764697313308716,
        45.8507080078125
      ],
      "min": [
        -33.59324264526367,
        -12.722853660583496,
        -45.82760238647461
      ],
      "type": "VEC3"
    },
    {
      "bufferView": 2,
      "byteOffset": 209100,
      "componentType": 5126,
      "count": 801,
      "max": [
        0.9999741315841675,
        0.9996119141578674,
        1.0
      ],
      "min": [
        -0.9345848560333252,
        -0.9988274574279785,
        -1.0
      ],
      "type": "VEC3"
    },
    {
      "bufferView": 1,
      "byteOffset": 66496,
      "componentType": 5126,
      "count": 801,
      "max": [
        1.0,
        1.0
      ],
      "min": [
        0.0,
        0.0
      ],
      "type": "VEC2"
    },
    {
      "bufferView": 0,
      "byteOffset": 72300,
      "componentType": 5125,
      "count": 2016,
      "type": "SCALAR"
    },
    {
      "bufferView": 2,
      "byteOffset": 218712,
      "componentType": 5126,
      "count": 648,
      "max": [
        107.23430633544922,
        12.337540626525879,
        45.8507080078125
      ],
      "min": [
        -33.59315490722656,
        -11.411111831665039,
        -30.379030227661133
      ],
      "type": "VEC3"
    },
    {
      "bufferView": 2,
      "byteOffset": 226488,
      "componentType": 5126,
      "count": 648,
      "max": [
        0.9958641529083252,
        0.9996930956840515,
        0.9999983310699463
      ],
      "min": [
        -0.9966850280761719,
        -0.9930230379104614,
        -0.9999983310699463
      ],
      "type": "VEC3"
    },
    {
      "bufferView": 3,
      "componentType": 5126,
      "count": 648,
      "max": [
        0.9672410488128662,
        0.9994461536407471,
        0.9991315007209778,
        1.0
      ],
      "min": [
        -0.9998323917388916,
        -0.9999839067459106,
        -0.9999988675117493,
        -1.0
      ],
      "type": "VEC4"
    },
    {
      "bufferView": 1,
      "byteOffset": 72904,
      "componentType": 5126,
      "count": 648,
      "max": [
        0.8323396444320679,
        1.0
      ],
      "min": [
        0.0,
        0.0
      ],
      "type": "VEC2"
    },
    {
      "bufferView": 1,
      "byteOffset": 78088,
      "componentType": 5126,
      "count": 648,
      "max": [
        0.8323396444320679,
        1.0
      ],
      "min": [
        0.0,
        0.0
      ],
      "type": "VEC2"
    },
    {
      "bufferView": 0,
      "byteOffset": 80364,
      "componentType": 5125,
      "count": 2388,
      "type": "SCALAR"
    },
    {
      "bufferView": 2,
      "byteOffset": 234264,
      "componentType": 5126,
      "count": 601,
      "max": [
        107.21377563476563,
        -1.0700032711029053,
        45.850704193115234
      ],
      "min": [
        -33.59370803833008,
        -12.833678245544434,
        -30.379030227661133
      ],
      "type": "VEC3"
    },
    {
      "bufferView": 2,
      "byteOffset": 241476,
      "componentType": 5126,
      "count": 601,
      "max": [
        0.7841796875,
        0.9980840086936951,
        0.9999629855155945
      ],
      "min": [
        -0.9997388124465942,
        -0.9999167323112488,
        -0.9999629855155945
      ],
      "type": "VEC3"
    },
    {
      "bufferView": 3,
      "byteOffset": 10368,
      "componentType": 5126,
      "count": 601,
      "max": [
        0.9999916553497314,
        0.9654282331466675,
        0.9566673636436462,
        1.0
      ],
      "min": [
        -0.9999916553497314,
        -0.9997388124465942,
        -0.9282228350639343,
        -1.0
      ],
      "type": "VEC4"
    },
    {
      "bufferView": 1,
      "byteOffset": 83272,
      "componentType": 5126,
      "count": 601,
      "max": [
        0.7867164611816406,
        1.0
      ],
      "min": [
        0.0,
        0.394546777009964
      ],
      "type": "VEC2"
    },
    {
      "bufferView": 1,
      "byteOffset": 88080,
      "componentType": 5126,
      "count": 601,
      "max": [
        0.7867164611816406,
        1.0
      ],
      "min": [
        0.0,
        0.394546777009964
      ],
      "type": "VEC2"
    },
    {
      "bufferView": 0,
      "byteOffset": 89916,
      "componentType": 5125,
      "count": 2148,
      "type": "SCALAR"
    },
    {
      "bufferView": 2,
      "byteOffset": 248688,
      "componentType": 5126,
      "count": 736,
      "max": [
        101.37461853027344,
        12.337540626525879,
        19.449161529541016
      ],
      "min": [
        -33.262657165527344,
        -12.302593231201172,
        -45.82760238647461
      ],
      "type": "VEC3"
    },
    {
      "bufferView": 2,
      "byteOffset": 257520,
      "componentType": 5126,
      "count": 736,
      "max": [
        0.9958643913269043,
        0.9996930956840515,
        1.0
      ],
      "min": [
        -0.9966850280761719,
        -0.9997109174728394,
        -1.0
      ],
      "type": "VEC3"
    },
    {
      "bufferView": 3,
      "byteOffset": 19984,
      "componentType": 5126,
      "count": 736,
      "max": [
        0.9998323917388916,
        0.9988916516304016,
        0.9999591112136841,
        1.0
      ],
      "min": [
        -0.9991505742073059,
        -0.9983632564544678,
        -1.0,
        -1.0
      ],
      "type": "VEC4"
    },
    {
      "bufferView": 1,
      "byteOffset": 92888,
      "componentType": 5126,
      "count": 736,
      "max": [
        0.9663812518119812,
        0.9631298780441284
      ],
      "min": [
        0.0,
        0.0
      ],
      "type": "VEC2"
    },
    {
      "bufferView": 1,
      "byteOffset": 98776,
      "componentType": 5126,
      "count": 736,
      "max": [
        0.9663812518119812,
        0.9631298780441284
      ],
      "min": [
        0.0,
        0.0
      ],
      "type": "VEC2"
    },
    {
      "bufferView": 0,
      "byteOffset": 98508,
      "componentType": 5125,
      "count": 2379,
      "type": "SCALAR"
    },
    {
      "bufferView": 2,
      "byteOffset": 266352,
      "componentType": 5126,
      "count": 475,
      "max": [
        101.34490966796875,
        -1.0700032711029053,
        0.011560789309442043
      ],
      "min": [
        -1.2702159881591797,
        -12.833678245544434,
        -45.82760238647461
      ],
      "type": "VEC3"
    },
    {
      "bufferView": 2,
      "byteOffset": 272052,
      "componentType": 5126,
      "count": 475,
      "max": [
        0.7841807007789612,
        0.9968355298042297,
        0.9981482028961182
      ],
      "min": [
        -0.9318656325340271,
        -0.9999167323112488,
        -0.9998500347137451
      ],
      "type": "VEC3"
    },
    {
      "bufferView": 3,
      "byteOffset": 31760,
      "componentType": 5126,
      "count": 475,
      "max": [
        0.9999902248382568,
        0.9916750192642212,
        0.9604828357696533,
        1.0
      ],
      "min": [
        -0.9996501207351685,
        -0.9868454337120056,
        -0.9282227158546448,
        -1.0
      ],
      "type": "VEC4"
    },
    {
      "bufferView": 1,
      "byteOffset": 104664,
      "componentType": 5126,
      "count": 475,
      "max": [
        0.9886951446533203,
        0.9821904301643372
      ],
      "min": [
        0.24709801375865936,
        0.2513278126716614
      ],
      "type": "VEC2"
    },
    {
      "bufferView": 1,
      "byteOffset": 108464,
      "componentType": 5126,
      "count": 475,
      "max": [
        0.9886951446533203,
        0.9821904301643372
      ],
      "min": [
        0.24709801375865936,
        0.2513278126716614
      ],
      "type": "VEC2"
    },
    {
      "bufferView": 0,
      "byteOffset": 108024,
      "componentType": 5125,
      "count": 1857,
      "type": "SCALAR"
    },
    {
      "bufferView": 2,
      "byteOffset": 277752,
      "componentType": 5126,
      "count": 325,
      "max": [
        31.87915802001953,
        -1.8297183513641357,
        10.446874618530273
      ],
      "min": [
        -9.245553970336914,
        -9.813032150268555,
        -10.423830032348633
      ],
      "type": "VEC3"
    },
    {
      "bufferView": 2,
      "byteOffset": 281652,
      "componentType": 5126,
      "count": 325,
      "max": [
        0.3092648386955261,
        0.9986384510993958,
        0.9966552257537842
      ],
      "min": [
        -0.7765408158302307,
        -0.9988274574279785,
        -0.996655285358429
      ],
      "type": "VEC3"
    },
    {
      "bufferView": 1,
      "byteOffset": 112264,
      "componentType": 5126,
      "count": 325,
      "max": [
        0.7292752265930176,
        0.8162067532539368
      ],
      "min": [
        0.0,
        0.0
      ],
      "type": "VEC2"
    },
    {
      "bufferView": 0,
      "byteOffset": 115452,
      "componentType": 5125,
      "count": 984,
      "type": "SCALAR"
    },
    {
      "bufferView": 2,
      "byteOffset": 285552,
      "componentType": 5126,
      "count": 88,
      "max": [
        18.026206970214844,
        -1.5409841537475586,
        6.335512161254883
      ],
      "min": [
        -33.59370803833008,
        -9.879558563232422,
        -4.140749931335449
      ],
      "type": "VEC3"
    },
    {
      "bufferView": 2,
      "byteOffset": 286608,
      "componentType": 5126,
      "count": 88,
      "max": [
        0.2387721985578537,
        0.018927911296486855,
        0.8778078556060791
      ],
      "min": [
        -0.7744866013526917,
        -0.9978018999099731,
        -0.5271738171577454
      ],
      "type": "VEC3"
    },
    {
      "bufferView": 3,
      "byteOffset": 39360,
      "componentType": 5126,
      "count": 88,
      "max": [
        0.9999109506607056,
        0.1532345712184906,
        0.1282406747341156,
        1.0
      ],
      "min": [
        -0.9643648266792297,
        -0.9980116486549377,
        -0.27210545539855957,
        1.0
      ],
      "type": "VEC4"
    },
    {
      "bufferView": 1,
      "byteOffset": 114864,
      "componentType": 5126,
      "count": 88,
      "max": [
        0.7820655107498169,
        0.5889561176300049
      ],
      "min": [
        0.12778380513191223,
        0.5492637753486633
      ],
      "type": "VEC2"
    },
    {
      "bufferView": 1,
      "byteOffset": 115568,
      "componentType": 5126,
      "count": 88,
      "max": [
        0.7820655107498169,
        0.5889561176300049
      ],
      "min": [
        0.12778380513191223,
        0.5492637753486633
      ],
      "type": "VEC2"
    },
    {
      "bufferView": 0,
      "byteOffset": 119388,
      "componentType": 5125,
      "count": 372,
      "type": "SCALAR"
    },
    {
      "bufferView": 2,
      "byteOffset": 287664,
      "componentType": 5126,
      "count": 84,
      "max": [
        18.026206970214844,
        -1.5999051332473755,
        0.011534538120031357
      ],
      "min": [
        -33.59370803833008,
        -9.879558563232422,
        -6.118788242340088
      ],
      "type": "VEC3"
    },
    {
      "bufferView": 2,
      "byteOffset": 288672,
      "componentType": 5126,
      "count": 84,
      "max": [
        0.020368296653032303,
        0.018928732722997665,
        2.2737263805083785e-07
      ],
      "min": [
        -0.7744874954223633,
        -0.9978018999099731,
        -0.8778889179229736
      ],
      "type": "VEC3"
    },
    {
      "bufferView": 3,
      "byteOffset": 40768,
      "componentType": 5126,
      "count": 84,
      "max": [
        -0.08919184654951096,
        0.9868639707565308,
        0.596084475517273,
        1.0
      ],
      "min": [
        -0.9989575147628784,
        -0.1302562952041626,
        -0.11061885952949524,
        1.0
      ],
      "type": "VEC4"
    },
    {
      "bufferView": 1,
      "byteOffset": 116272,
      "componentType": 5126,
      "count": 84,
      "max": [
        0.8740172982215881,
        0.5885302424430847
      ],
      "min": [
        0.6735762357711792,
        0.5389626622200012
      ],
      "type": "VEC2"
    },
    {
      "bufferView": 1,
      "byteOffset": 116944,
      "componentType": 5126,
      "count": 84,
      "max": [
        0.8740172982215881,
        0.5885302424430847
      ],
      "min": [
        0.6735762357711792,
        0.5389626622200012
      ],
      "type": "VEC2"
    },
    {
      "bufferView": 0,
      "byteOffset": 120876,
      "componentType": 5125,
      "count": 366,
      "type": "SCALAR"
    },
    {
      "bufferView": 2,
      "byteOffset": 289680,
      "componentType": 5126,
      "count": 301,
      "max": [
        93.78479766845703,
        3.6594388484954834,
        9.598062515258789
      ],
      "min": [
        -20.713546752929688,
        -11.808040618896484,
        -9.574944496154785
      ],
      "type": "VEC3"
    },
    {
      "bufferView": 2,
      "byteOffset": 293292,
      "componentType": 5126,
      "count": 301,
      "max": [
        0.9810833930969238,
        0.9845517873764038,
        1.0
      ],
      "min": [
        -0.9399744272232056,
        -0.9987481832504272,
        -1.0
      ],
      "type": "VEC3"
    },
    {
      "bufferView": 1,
      "byteOffset": 117616,
      "componentType": 5126,
      "count": 301,
      "max": [
        1.0,
        1.0
      ],
      "min": [
        0.0,
        0.0
      ],
      "type": "VEC2"
    },
    {
      "bufferView": 0,
      "byteOffset": 122340,
      "componentType": 5125,
      "count": 1122,
      "type": "SCALAR"
    },
    {
      "bufferView": 2,
      "byteOffset": 296904,
      "componentType": 5126,
      "count": 112,
      "max": [
        8.725123405456543,
        6.538173198699951,
        3.3942673206329346
      ],
      "min": [
        -13.700142860412598,
        2.1110825538635254,
        -3.3495519161224365
      ],
      "type": "VEC3"
    },
    {
      "bufferView": 2,
      "byteOffset": 298248,
      "componentType": 5126,
      "count": 112,
      "max": [
        0.2832919955253601,
        0.9975857138633728,
        0.9800717234611511
      ],
      "min": [
        -0.32788583636283875,
        0.18542887270450592,
        -0.9800716042518616
      ],
      "type": "VEC3"
    },
    {
      "bufferView": 1,
      "byteOffset": 120024,
      "componentType": 5126,
      "count": 112,
      "max": [
        0.4578104019165039,
        1.0
      ],
      "min": [
        0.25,
        0.5
      ],
      "type": "VEC2"
    },
    {
      "bufferView": 0,
      "byteOffset": 126828,
      "componentType": 5125,
      "count": 540,
      "type": "SCALAR"
    },
    {
      "bufferView": 2,
      "byteOffset": 299592,
      "componentType": 5126,
      "count": 384,
      "max": [
        86.89202117919922,
        -6.028176307678223,
        7.235970973968506
      ],
      "min": [
        83.25859069824219,
        -11.309764862060547,
        -7.212845802307129
      ],
      "type": "VEC3"
    },
    {
      "bufferView": 2,
      "byteOffset": 304200,
      "componentType": 5126,
      "count": 384,
      "max": [
        0.995864987373352,
        0.9973359704017639,
        1.0
      ],
      "min": [
        -0.9958642721176147,
        -0.9781481027603149,
        -1.0
      ],
      "type": "VEC3"
    },
    {
      "bufferView": 1,
      "byteOffset": 120920,
      "componentType": 5126,
      "count": 384,
      "max": [
        1.0,
        1.0
      ],
      "min": [
        0.0,
        0.01000000536441803
      ],
      "type": "VEC2"
    },
    {
      "bufferView": 0,
      "byteOffset": 128988,
      "componentType": 5125,
      "count": 612,
      "type": "SCALAR"
    }
  ],
  "asset": {
    "extras": {
      "author": "andertan (https://sketchfab.com/andertan)",
      "license": "CC-BY-4.0 (http://creativecommons.org/licenses/by/4.0/)",
      "source": "https://sketchfab.com/3d-models/lockheed-martin-f-22-raptor-7e7b3c372e374dda98e70208d09cfdcf",
      "title": "Lockheed Martin F-22 \"Raptor\""
    },
    "generator": "Sketchfab-16.32.0",
    "version": "2.0"
  },
  "bufferViews": [
    {
      "buffer": 0,
      "byteLength": 131436,
      "name": "floatBufferViews",
      "target": 34963
    },
    {
      "buffer": 0,
      "byteLength": 123992,
      "byteOffset": 131436,
      "byteStride": 8,
      "name": "floatBufferViews",
      "target": 34962
    },
    {
      "buffer": 0,
      "byteLength": 308808,
      "byteOffset": 255428,
      "byteStride": 12,
      "name": "floatBufferViews",
      "target": 34962
    },
    {
      "buffer": 0,
      "byteLength": 42112,
      "byteOffset": 564236,
      "byteStride": 16,
      "name": "floatBufferViews",
      "target": 34962
    }
  ],
  "buffers": [
    {
      "byteLength": 606348,
      "uri": "scene.bin"
    }
  ],
  "extensionsUsed": [
    "KHR_materials_emissive_strength",
    "KHR_materials_specular"
  ],
  "images": [
    {
      "uri": "textures/Nato_black_baseColor.png"
    },
    {
      "uri": "textures/screen.001_baseColor.jpeg"
    },
    {
      "uri": "textures/f22_top_U_baseColor.jpeg"
    },
    {
      "uri": "textures/f22_top_U_normal.jpeg"
    },
    {
      "uri": "textures/f22_bottom_L_baseColor.png"
    },
    {
      "uri": "textures/f22_bottom_L_normal.jpeg"
    },
    {
      "uri": "textures/f22_top_D_baseColor.jpeg"
    },
    {
      "uri": "textures/f22_top_D_normal.jpeg"
    },
    {
      "uri": "textures/f22_bottom_R._baseColor.png"
    },
    {
      "uri": "textures/f22_bottom_R._normal.jpeg"
    },
    {
      "uri": "textures/f22_bottom_L_darker_baseColor.png"
    }
  ],
  "materials": [
    {
      "doubleSided": true,
      "name": "Darkness.001",
      "pbrMetallicRoughness": {
        "baseColorFactor": [
          0.0166835,
          0.0166835,
          0.0166835,
          1.0
        ],
        "metallicFactor": 0.0,
        "roughnessFactor": 0.5
      }
    },
    {
      "doubleSided": true,
      "emissiveFactor": [
        1.0,
        0.8455545917859504,
        0.23944218220440902
      ],
      "extensions": {
        "KHR_materials_emissive_strength": {
          "emissiveStrength": 1.9359756097560976
        }
      },
      "name": "Whitish_grey.002",
      "pbrMetallicRoughness": {
        "baseColorFactor": [
          0.828292110066717,
          0.828292110066717,
          0.828292110066717,
          1.0
        ],
        "metallicFactor": 0.0,
        "roughnessFactor": 0.5
      }
    },
    {
      "doubleSided": true,
      "name": "Nato_black",
      "pbrMetallicRoughness": {
        "baseColorTexture": {
          "index": 0
        },
        "metallicFactor": 0.0,
        "roughnessFactor": 0.5
      }
    },
    {
      "doubleSided": true,
      "name": "Darker_paint.001",
      "pbrMetallicRoughness": {
        "baseColorFactor": [
          0.0257087,
          0.026293,
          0.026293,
          1.0
        ],
        "metallicFactor": 0.0,
        "roughnessFactor": 0.48538
      }
    },
    {
      "doubleSided": true,
      "emissiveFactor": [
        1.0,
        0.8781424343606664,
        0.4280886449157222
      ],
      "extensions": {
        "KHR_materials_emissive_strength": {
          "emissiveStrength": 2.0
        }
      },
      "name": "Whitish_grey.001",
      "pbrMetallicRoughness": {
        "baseColorFactor": [
          0.424615,
          0.385928,
          0.397586,
          1.0
        ],
        "metallicFactor": 0.0,
        "roughnessFactor": 0.5
      }
    },
    {
      "doubleSided": true,
      "emissiveFactor": [
        0.014839,
        1.0,
        0.0
      ],
      "name": "Glowing_green.001",
      "pbrMetallicRoughness": {
        "baseColorFactor": [
          0.8,
          0.8,
          0.8,
          1.0
        ],
        "metallicFactor": 0.0,
        "roughnessFactor": 0.5
      }
    },
    {
      "doubleSided": true,
      "name": "screen.001",
      "pbrMetallicRoughness": {
        "baseColorTexture": {
          "index": 1
        },
        "metallicFactor": 0.0,
        "roughnessFactor": 0.5
      }
    },
    {
      "doubleSided": true,
      "name": "Grey",
      "pbrMetallicRoughness": {
        "baseColorFactor": [
          0.11673372093150068,
          0.11458240434724556,
          0.11458240434724556,
          1.0
        ],
        "metallicFactor": 0.0,
        "roughnessFactor": 0.5
      }
    },
    {
      "doubleSided": true,
      "name": "f22_top_U",
      "normalTexture": {
        "index": 3
      },
      "pbrMetallicRoughness": {
        "baseColorTexture": {
          "index": 2
        },
        "metallicFactor": 0.0,
        "roughnessFactor": 0.4
      }
    },
    {
      "doubleSided": true,
      "name": "f22_bottom_L",
      "normalTexture": {
        "index": 5
      },
      "pbrMetallicRoughness": {
        "baseColorTexture": {
          "index": 4
        },
        "metallicFactor": 0.0,
        "roughnessFactor": 0.5
      }
    },
    {
      "doubleSided": true,
      "name": "f22_top_D",
      "normalTexture": {
        "index": 7
      },
      "pbrMetallicRoughness": {
        "baseColorTexture": {
          "index": 6
        },
        "metallicFactor": 0.0,
        "roughnessFactor": 0.4
      }
    },
    {
      "doubleSided": true,
      "name": "f22_bottom_R.",
      "normalTexture": {
        "index": 9
      },
      "pbrMetallicRoughness": {
        "baseColorTexture": {
          "index": 8
        },
        "metallicFactor": 0.0,
        "roughnessFactor": 0.5
      }
    },
    {
      "doubleSided": true,
      "name": "dark",
      "pbrMetallicRoughness": {
        "baseColorFactor": [
          0.0,
          0.0,
          0.0,
          1.0
        ],
        "metallicFactor": 0.0
      }
    },
    {
      "doubleSided": true,
      "name": "f22_bottom_L_darker",
      "normalTexture": {
        "index": 5,
        "scale": 0.8
      },
      "pbrMetallicRoughness": {
        "baseColorTexture": {
          "index": 10
        },
        "metallicFactor": 0.0,
        "roughnessFactor": 0.4
      }
    },
    {
      "doubleSided": true,
      "name": "f22_bottom_R_darker",
      "normalTexture": {
        "index": 9,
        "scale": 0.8
      },
      "pbrMetallicRoughness": {
        "baseColorTexture": {
          "index": 8
        },
        "metallicFactor": 0.0,
        "roughnessFactor": 0.4
      }
    },
    {
      "doubleSided": true,
      "name": "glass"
    },
    {
      "alphaMode": "BLEND",
      "doubleSided": true,
      "extensions": {
        "KHR_materials_specular": {
          "specularColorFactor": [
            1.0,
            1.0,
            1.0
          ],
          "specularFactor": 1.0
        }
      },
      "name": "plumes",
      "pbrMetallicRoughness": {
        "baseColorFactor": [
          0.5399202322377528,
          0.3502901254468573,
          0.11094155894955307,
          0.6021341463414634
        ],
        "roughnessFactor": 0.0
      }
    },
    {
      "doubleSided": true,
      "emissiveFactor": [
        0.667162779707386,
        0.20533413223837377,
        0.0991969531315566
      ],
      "extensions": {
        "KHR_materials_emissive_strength": {
          "emissiveStrength": 10.0
        }
      },
      "name": "plumes_2",
      "pbrMetallicRoughness": {
        "baseColorFactor": [
          0.8,
          0.8,
          0.8,
          1.0
        ],
        "metallicFactor": 0.0,
        "roughnessFactor": 0.5
      }
    }
  ],
  "meshes": [
    {
      "name": "Object_0",
      "primitives": [
        {
          "attributes": {
            "NORMAL": 1,
            "POSITION": 0,
            "TEXCOORD_0": 2
          },
          "indices": 3,
          "material": 0,
          "mode": 4
        }
      ]
    },
    {
      "name": "Object_1",
      "primitives": [
        {
          "attributes": {
            "NORMAL": 5,
            "POSITION": 4,
            "TEXCOORD_0": 6
          },
          "indices": 7,
          "material": 1,
          "mode": 4
        }
      ]
    },
    {
      "name": "Object_2",
      "primitives": [
        {
          "attributes": {
            "NORMAL": 9,
            "POSITION": 8,
            "TEXCOORD_0": 10
          },
          "indices": 11,
          "material": 2,
          "mode": 4
        }
      ]
    },
    {
      "name": "Object_3",
      "primitives": [
        {
          "attributes": {
            "NORMAL": 13,
            "POSITION": 12,
            "TEXCOORD_0": 14
          },
          "indices": 15,
          "material": 3,
          "mode": 4
        }
      ]
    },
    {
      "name": "Object_4",
      "primitives": [
        {
          "attributes": {
            "NORMAL": 17,
            "POSITION": 16,
            "TEXCOORD_0": 18
          },
          "indices": 19,
          "material": 4,
          "mode": 4
        }
      ]
    },
    {
      "name": "Object_5",
      "primitives": [
        {
          "attributes": {
            "NORMAL": 21,
            "POSITION": 20,
            "TEXCOORD_0": 22
          },
          "indices": 23,
          "material": 5,
          "mode": 4
        }
      ]
    },
    {
      "name": "Object_6",
      "primitives": [
        {
          "attributes": {
            "NORMAL": 25,
            "POSITION": 24,
            "TEXCOORD_0": 26
          },
          "indices": 27,
          "material": 6,
          "mode": 4
        }
      ]
    },
    {
      "name": "Object_7",
      "primitives": [
        {
          "attributes": {
            "NORMAL": 29,
            "POSITION": 28,
            "TEXCOORD_0": 30
          },
          "indices": 31,
          "material": 7,
          "mode": 4
        }
      ]
    },
    {
      "name": "Object_8",
      "primitives": [
        {
          "attributes": {
            "NORMAL": 33,
            "POSITION": 32,
            "TANGENT": 34,
            "TEXCOORD_0": 35,
            "TEXCOORD_1": 36
          },
          "indices": 37,
          "material": 8,
          "mode": 4
        }
      ]
    },
    {
      "name": "Object_9",
      "primitives": [
        {
          "attributes": {
            "NORMAL": 39,
            "POSITION": 38,
            "TANGENT": 40,
            "TEXCOORD_0": 41,
            "TEXCOORD_1": 42
          },
          "indices": 43,
          "material": 9,
          "mode": 4
        }
      ]
    },
    {
      "name": "Object_10",
      "primitives": [
        {
          "attributes": {
            "NORMAL": 45,
            "POSITION": 44,
            "TANGENT": 46,
            "TEXCOORD_0": 47,
            "TEXCOORD_1": 48
          },
          "indices": 49,
          "material": 10,
          "mode": 4
        }
      ]
    },
    {
      "name": "Object_11",
      "primitives": [
        {
          "attributes": {
            "NORMAL": 51,
            "POSITION": 50,
            "TANGENT": 52,
            "TEXCOORD_0": 53,
            "TEXCOORD_1": 54
          },
          "indices": 55,
          "material": 11,
          "mode": 4
        }
      ]
    },
    {
      "name": "Object_12",
      "primitives": [
        {
          "attributes": {
            "NORMAL": 57,
            "POSITION": 56,
            "TEXCOORD_0": 58
          },
          "indices": 59,
          "material": 12,
          "mode": 4
        }
      ]
    },
    {
      "name": "Object_13",
      "primitives": [
        {
          "attributes": {
            "NORMAL": 61,
            "POSITION": 60,
            "TANGENT": 62,
            "TEXCOORD_0": 63,
            "TEXCOORD_1": 64
          },
          "indices": 65,
          "material": 13,
          "mode": 4
        }
      ]
    },
    {
      "name": "Object_14",
      "primitives": [
        {
          "attributes": {
            "NORMAL": 67,
            "POSITION": 66,
            "TANGENT": 68,
            "TEXCOORD_0": 69,
            "TEXCOORD_1": 70
          },
          "indices": 71,
          "material": 14,
          "mode": 4
        }
      ]
    },
    {
      "name": "Object_15",
      "primitives": [
        {
          "attributes": {
            "NORMAL": 73,
            "POSITION": 72,
            "TEXCOORD_0": 74
          },
          "indices": 75,
          "material": 15,
          "mode": 4
        }
      ]
    },
    {
      "name": "Object_16",
      "primitives": [
        {
          "attributes": {
            "NORMAL": 77,
            "POSITION": 76,
            "TEXCOORD_0": 78
          },
          "indices": 79,
          "material": 16,
          "mode": 4
        }
      ]
    },
    {
      "name": "Object_17",
      "primitives": [
        {
          "attributes": {
            "NORMAL": 81,
            "POSITION": 80,
            "TEXCOORD_0": 82
          },
          "indices": 83,
          "material": 17,
          "mode": 4
        }
      ]
    }
  ],
  "nodes": [
    {
      "children": [
        1
      ],
      "matrix": [
        1.0,
        0.0,
        0.0,
        0.0,
        0.0,
        2.220446049250313e-16,
        -1.0,
        0.0,
        0.0,
        1.0,
        2.220446049250313e-16,
        0.0,
        0.0,
        0.0,
        0.0,
        1.0
      ],
      "name": "Sketchfab_model"
    },
    {
      "children": [
        2
      ],
      "name": "root"
    },
    {
      "children": [
        3
      ],
      "matrix": [
        1.0,
        0.0,
        0.0,
        0.0,
        0.0,
        2.220446049250313e-16,
        1.0,
        0.0,
        0.0,
        -1.0,
        2.220446049250313e-16,
        0.0,
        0.0,
        0.0,
        0.0,
        1.0
      ],
      "name": "GLTF_SceneRootNode"
    },
    {
      "children": [
        4,
        5,
        6,
        7,
        8,
        9,
        10,
        11,
        12,
        13,
        14,
        15,
        16,
        17,
        18,
        19,
        20,
        21
      ],
      "matrix": [
        0.08552895348715867,
        0.006986589867742864,
        0.0,
        0.0,
        -0.007803000381410222,
        0.09552334820213589,
        -0.0,
        0.0,
        0.0,
        0.0,
        0.09584151953458786,
        0.0,
        2.8424794673919678,
        0.39209073781967163,
        -0.0011034872150048614,
        1.0
      ],
      "name": "f22_2"
    },
    {
      "mesh": 0,
      "name": "Object_4"
    },
    {
      "mesh": 1,
      "name": "Object_5"
    },
    {
      "mesh": 2,
      "name": "Object_6"
    },
    {
      "mesh": 3,
      "name": "Object_7"
    },
    {
      "mesh": 4,
      "name": "Object_8"
    },
    {
      "mesh": 5,
      "name": "Object_9"
    },
    {
      "mesh": 6,
      "name": "Object_10"
    },
    {
      "mesh": 7,
      "name": "Object_11"
    },
    {
      "mesh": 8,
      "name": "Object_12"
    },
    {
      "mesh": 9,
      "name": "Object_13"
    },
    {
      "mesh": 10,
      "name": "Object_14"
    },
    {
      "mesh": 11,
      "name": "Object_15"
    },
    {
      "mesh": 12,
      "name": "Object_16"
    },
    {
      "mesh": 13,
      "name": "Object_17"
    },
    {
      "mesh": 14,
      "name": "Object_18"
    },
    {
      "mesh": 15,
      "name": "Object_19"
    },
    {
      "mesh": 16,
      "name": "Object_20"
    },
    {
      "mesh": 17,
      "name": "Object_21"
    }
  ],
  "samplers": [
    {
      "magFilter": 9729,
      "minFilter": 9987,
      "wrapS": 10497,
      "wrapT": 10497
    }
  ],
  "scene": 0,
  "scenes": [
    {
      "name": "Sketchfab_Scene",
      "nodes": [
        0
      ]
    }
  ],
  "textures": [
    {
      "sampler": 0,
      "source": 0
    },
    {
      "sampler": 0,
      "source": 1
    },
    {
      "sampler": 0,
      "source": 2
    },
    {
      "sampler": 0,
      "source": 3
    },
    {
      "sampler": 0,
      "source": 4
    },
    {
      "sampler": 0,
      "source": 5
    },
    {
      "sampler": 0,
      "source": 6
    },
    {
      "sampler": 0,
      "source": 7
    },
    {
      "sampler": 0,
      "source": 8
    },
    {
      "sampler": 0,
      "source": 9
    },
    {
      "sampler": 0,
      "source": 10
    }
  ]
}
